# xmcd
#
# Track frame offsets:
# 150
# 13017
# 25986
# 42608
# 58350
# 69796
# 88989
# 106391
# 120293
# 133692
# 149216
# 163295
# 179495
# 196016
# 212929
# 226471
# 240290
# 258917
# 270950
# 289761
#
# Disc length: 4088 seconds
#
#
# Revision: 0
# Processed by: cddbd v1.5.2PL0 Copyright (c) Steve Scherf et al.
# Submitted via: FreeRIP 2.945 
#
DISCID=2c0ff614
DTITLE=Sertanejo Bom de Dança 2005 - Sertanejo Bom de Dança 2005
DYEAR=2005
DGENRE=Folk
TTITLE0=Balançou Sacudiu
TTITLE1=Clube do Batidão
TTITLE2=Por que Choras
TTITLE3=Que Pescar que nada
TTITLE4=Crista de Peru
TTITLE5=Se eu Pudesse
TTITLE6=Gavião
TTITLE7=Que Bicho é
TTITLE8=Abre a janela
TTITLE9=Solte a Garganta
TTITLE10=Mulher Boa
TTITLE11=Toca da Saia
TTITLE12=Eu Gosto é de Mulher
TTITLE13=Alo meu Povo
TTITLE14=Peao de Vitrine
TTITLE15=Eu sou peao
TTITLE16=Bebedeira
TTITLE17=Pelejando
TTITLE18=Agora Aguenta Nois
TTITLE19=Fera Ferida
EXTD=
EXTT0=
EXTT1=
EXTT2=
EXTT3=
EXTT4=
EXTT5=
EXTT6=
EXTT7=
EXTT8=
EXTT9=
EXTT10=
EXTT11=
EXTT12=
EXTT13=
EXTT14=
EXTT15=
EXTT16=
EXTT17=
EXTT18=
EXTT19=
PLAYORDER=
